<?xml version="1.0" standalone="no"?>
<!DOCTYPE svg PUBLIC "-//W3C//DTD SVG 20010904//EN"
 "http://www.w3.org/TR/2001/REC-SVG-20010904/DTD/svg10.dtd">
<svg version="1.0" xmlns="http://www.w3.org/2000/svg"
 width="402.000000pt" height="402.000000pt" viewBox="0 0 402.000000 402.000000"
 preserveAspectRatio="xMidYMid meet">
<metadata>
Created by potrace 1.14, written by Peter Selinger 2001-2017
</metadata>
<g transform="translate(0.000000,402.000000) scale(0.100000,-0.100000)"
fill="#000000" stroke="none">
<path d="M1928 4010 c-47 -3 -89 -8 -92 -11 -5 -5 -116 -360 -120 -384 -1 -5
-4 -14 -8 -20 -3 -5 -9 -25 -13 -42 -3 -18 -12 -33 -18 -34 -28 -2 -62 -11
-178 -49 l-122 -40 -171 127 c-94 71 -177 134 -184 141 -24 22 -50 32 -68 25
-27 -10 -128 -78 -216 -145 -82 -62 -82 -62 -55 -133 8 -22 27 -74 42 -115 15
-41 31 -84 35 -95 5 -11 16 -40 24 -65 8 -25 20 -58 27 -75 20 -50 19 -56 -17
-94 -18 -20 -34 -39 -34 -42 0 -3 -9 -17 -21 -30 -11 -13 -39 -52 -61 -85
l-39 -62 -142 4 c-78 1 -194 4 -257 6 l-115 2 -16 -34 c-23 -48 -86 -237 -94
-280 l-6 -35 203 -135 c112 -74 205 -136 207 -138 3 -1 6 -71 7 -155 l2 -152
-210 -139 -210 -140 7 -35 c8 -45 82 -265 100 -301 11 -22 20 -26 47 -24 18 1
133 5 255 8 l222 5 44 -67 c25 -37 53 -77 63 -88 45 -51 69 -88 66 -103 -4
-19 -88 -253 -107 -296 -7 -16 -23 -61 -35 -99 l-23 -70 24 -19 c13 -10 35
-28 49 -40 40 -35 223 -157 234 -157 6 0 100 67 210 149 l198 149 94 -34 c52
-18 109 -36 126 -39 61 -11 81 -27 94 -75 7 -25 24 -83 39 -130 14 -47 28 -89
29 -95 1 -5 8 -30 15 -55 7 -25 12 -45 10 -45 -1 0 3 -11 10 -23 7 -13 15 -36
17 -50 3 -15 7 -29 10 -31 7 -7 80 -11 219 -10 72 0 138 0 147 0 10 0 20 5 24
10 8 13 140 446 143 470 1 3 27 12 59 19 31 7 101 28 155 47 l98 34 32 -23
c18 -12 34 -25 37 -28 3 -3 32 -25 65 -49 33 -25 62 -48 63 -53 2 -4 10 -8 17
-8 7 0 15 -3 17 -7 4 -10 154 -122 172 -129 15 -6 199 111 251 158 17 16 33
28 37 28 4 0 12 8 17 18 7 14 1 43 -25 113 -19 52 -39 105 -44 119 -4 14 -27
75 -49 137 l-40 112 27 33 c15 18 34 40 42 50 23 25 31 37 80 110 l45 67 190
-6 c182 -5 286 -7 312 -4 24 2 113 254 113 316 l-1 40 -197 130 c-108 71 -199
131 -201 132 -3 2 -5 65 -6 142 -1 76 -4 142 -8 147 -3 5 25 30 61 54 37 25
69 47 72 50 3 3 67 46 142 95 135 88 138 91 138 127 0 37 -65 249 -93 304 -14
28 -19 30 -64 28 -26 -1 -139 -5 -250 -8 -231 -6 -206 -15 -283 98 -26 39 -56
80 -66 91 -46 50 -46 44 1 171 25 65 45 123 45 127 0 5 7 23 15 40 19 41 65
172 65 184 0 13 -107 98 -213 168 -81 54 -90 58 -110 45 -12 -7 -103 -74 -202
-149 -177 -133 -206 -147 -239 -123 -6 5 -45 19 -86 32 -41 12 -85 27 -98 31
-13 5 -32 9 -42 9 -13 0 -20 7 -20 18 0 10 -4 22 -9 28 -4 5 -16 38 -25 74
-10 36 -31 106 -46 155 -15 50 -36 117 -46 150 -9 33 -18 61 -19 63 -8 11
-191 18 -297 12z m202 -1065 c59 -7 100 -14 125 -22 11 -4 22 -7 25 -8 40 -7
169 -65 237 -106 37 -22 128 -95 168 -134 78 -76 169 -216 207 -318 10 -29 22
-59 25 -67 3 -8 7 -22 9 -30 2 -8 9 -45 17 -81 31 -148 8 -372 -55 -529 -124
-308 -442 -547 -768 -576 -36 -3 -76 -7 -90 -8 -25 -3 -133 8 -204 19 -110 19
-276 93 -376 170 -249 192 -381 462 -375 771 4 195 53 353 160 513 40 59 168
201 182 201 2 0 10 6 18 13 20 18 49 41 71 53 94 53 129 69 207 96 107 35 112
36 202 44 39 4 71 8 73 9 3 3 86 -3 142 -10z"/>
</g>
</svg>
